HIERARCHY
ROOT Hips
{
	OFFSET -0.001795 -0.223333 0.028219
	CHANNELS 6 Xposition Yposition Zposition Zrotation Yrotation Xrotation 
	JOINT LeftUpLeg
	{
		OFFSET 0.069520 -0.091406 -0.006815
		CHANNELS 3 Zrotation Yrotation Xrotation
		JOINT LeftLeg
		{
			OFFSET 0.034277 -0.375199 -0.004496
			CHANNELS 3 Zrotation Yrotation Xrotation
			JOINT LeftFoot
			{
				OFFSET -0.013596 -0.397961 -0.043693
				CHANNELS 3 Zrotation Yrotation Xrotation
				JOINT LeftToe
				{
					OFFSET 0.026358 -0.055791 0.119288
					CHANNELS 3 Zrotation Yrotation Xrotation
					End Site
					{
						OFFSET 0.000000 0.000000 0.000000
					}
				}
			}
		}
	}
	JOINT RightUpLeg
	{
		OFFSET -0.067670 -0.090522 -0.004320
		CHANNELS 3 Zrotation Yrotation Xrotation
		JOINT RightLeg
		{
			OFFSET -0.038290 -0.382569 -0.008850
			CHANNELS 3 Zrotation Yrotation Xrotation
			JOINT RightFoot
			{
				OFFSET 0.015774 -0.398415 -0.042312
				CHANNELS 3 Zrotation Yrotation Xrotation
				JOINT RightToe
				{
					OFFSET -0.025372 -0.048144 0.123348
					CHANNELS 3 Zrotation Yrotation Xrotation
					End Site
					{
						OFFSET 0.000000 0.000000 0.000000
					}
				}
			}
		}
	}
	JOINT Spine
	{
		OFFSET -0.002533 0.108963 -0.026696
		CHANNELS 3 Zrotation Yrotation Xrotation
		JOINT Spine1
		{
			OFFSET 0.005487 0.135180 0.001092
			CHANNELS 3 Zrotation Yrotation Xrotation
			JOINT Spine2
			{
				OFFSET 0.001457 0.052922 0.025425
				CHANNELS 3 Zrotation Yrotation Xrotation
				JOINT Neck
				{
					OFFSET -0.002778 0.213870 -0.042857
					CHANNELS 3 Zrotation Yrotation Xrotation
					JOINT Head
					{
						OFFSET 0.005152 0.064970 0.051349
						CHANNELS 3 Zrotation Yrotation Xrotation
						End Site
						{
							OFFSET 0.000000 0.000000 0.000000
						}
					}
				}
				JOINT LeftShoulder
				{
					OFFSET 0.078845 0.121749 -0.034090
					CHANNELS 3 Zrotation Yrotation Xrotation
					JOINT LeftArm
					{
						OFFSET 0.090977 0.030469 -0.008868
						CHANNELS 3 Zrotation Yrotation Xrotation
						JOINT LeftForeArm
						{
							OFFSET 0.259612 -0.012772 -0.027456
							CHANNELS 3 Zrotation Yrotation Xrotation
							JOINT LeftHand
							{
								OFFSET 0.249234 0.008986 -0.001171
								CHANNELS 3 Zrotation Yrotation Xrotation
								End Site
								{
									OFFSET 0.000000 0.000000 0.000000
								}
							}
						}
					}
				}
				JOINT RightShoulder
				{
					OFFSET -0.081759 0.118833 -0.038615
					CHANNELS 3 Zrotation Yrotation Xrotation
					JOINT RightArm
					{
						OFFSET -0.096012 0.032551 -0.009143
						CHANNELS 3 Zrotation Yrotation Xrotation
						JOINT RightForeArm
						{
							OFFSET -0.253742 -0.013329 -0.021401
							CHANNELS 3 Zrotation Yrotation Xrotation
							JOINT RightHand
							{
								OFFSET -0.255298 0.007772 -0.005559
								CHANNELS 3 Zrotation Yrotation Xrotation
								End Site
								{
									OFFSET 0.000000 0.000000 0.000000
								}
							}
						}
					}
				}
			}
		}
	}
}
MOTION
Frames: 5
Frame Time: 0.050000
0.044734 0.945739 0.046360 -3.893649 -2.074652 1.880949 5.925543 0.184605 6.212696 -3.965053 0.449379 -0.521585 -0.469715 -0.127961 1.945267 0.000000 0.000000 0.000000 -5.957545 0.989843 -15.716142 8.377090 -1.711281 29.177578 -6.359282 -16.350912 4.973518 0.000000 0.000000 0.000000 5.214617 -0.320326 2.837732 -7.554021 2.582777 -19.651116 0.026039 6.699791 31.434068 11.557535 -2.059565 -39.129703 0.000000 0.000000 0.000000 -29.783632 -13.185908 4.654492 -34.553761 -5.369597 -3.877747 7.098620 -37.298254 -0.996983 0.000000 0.000000 0.000000 36.665263 -2.262794 -1.274233 48.158116 2.002328 -7.289805 -5.032917 32.006871 0.805599 0.000000 0.000000 0.000000 
0.047784 0.944729 0.064706 -4.532833 -1.492746 1.692635 6.590332 0.178061 7.619364 -3.888464 0.435341 -0.824774 -0.283470 -0.169276 0.953408 0.000000 0.000000 0.000000 -5.298900 1.329802 -20.537015 10.669117 -2.635049 29.049489 -7.396089 -18.567070 6.040333 0.000000 0.000000 0.000000 5.324291 -0.386482 3.554502 -6.884253 2.399944 -19.768581 -0.352249 5.229305 31.910218 10.308751 -1.747181 -38.617334 0.000000 0.000000 0.000000 -30.128796 -14.481567 6.052487 -33.367010 -7.097048 -3.504784 10.557670 -39.114468 -2.190261 0.000000 0.000000 0.000000 36.271061 -2.153905 -1.722596 49.423075 0.584336 -7.817541 -6.174024 33.996596 0.533180 0.000000 0.000000 0.000000 
0.049493 0.941420 0.087149 -5.127635 -1.176626 2.001679 6.989072 0.189821 9.487207 -3.259522 0.370775 -1.724366 -0.633656 -0.954418 0.840977 0.000000 0.000000 0.000000 -4.405350 1.653272 -23.408782 10.757446 -2.317986 22.083971 -8.546986 -20.865162 9.189007 0.000000 0.000000 0.000000 5.927356 -0.421132 3.560867 -6.403039 2.286163 -19.200460 -1.375878 4.332286 31.394847 10.500920 -1.784388 -39.501347 0.000000 0.000000 0.000000 -30.212372 -16.072312 7.440789 -31.612230 -8.390472 -3.094381 13.050487 -39.984932 -3.133385 0.000000 0.000000 0.000000 36.831564 -2.888992 -2.756811 49.454437 -0.680311 -8.128163 -6.221955 35.068882 0.492846 0.000000 0.000000 0.000000 
0.049681 0.935967 0.113762 -5.043151 -0.679781 1.979227 6.647951 0.285680 11.813387 -2.501845 0.293738 -1.575111 -0.542088 -1.573857 -0.828556 0.000000 0.000000 0.000000 -4.003752 1.837293 -25.381006 9.575951 -1.615764 13.743493 -8.380302 -20.505601 12.076691 0.000000 0.000000 0.000000 6.185126 -0.506365 4.312812 -6.593343 2.307883 -20.354507 -1.631849 2.157241 32.348276 10.464602 -2.211235 -38.621527 0.000000 0.000000 0.000000 -30.292152 -17.045568 9.030392 -31.061760 -10.159604 -2.966726 17.056946 -42.018285 -4.666167 0.000000 0.000000 0.000000 36.441607 -2.347512 -3.265452 49.361129 -2.375701 -8.534250 -6.772814 36.681957 0.194203 0.000000 0.000000 0.000000 
0.047949 0.928443 0.146108 -4.958973 -1.697280 2.282955 5.950576 0.503480 14.051726 -1.203595 0.173541 -1.693938 -0.235253 -1.052992 -1.164065 0.000000 0.000000 0.000000 -3.385242 2.141398 -26.855902 8.196328 -0.974668 4.530685 -8.958800 -21.570370 16.035803 0.000000 0.000000 0.000000 7.092973 -0.546119 4.234408 -6.855082 2.360582 -20.265489 -2.477619 1.521281 31.908016 10.079353 -2.270502 -38.172078 0.000000 0.000000 0.000000 -29.827375 -17.582866 9.964403 -30.525805 -11.893310 -2.703584 21.883208 -44.932358 -6.872516 0.000000 0.000000 0.000000 36.558338 -2.758069 -4.405572 49.456404 -3.511294 -8.677943 -7.189157 38.010818 -0.084225 0.000000 0.000000 0.000000 
